<?xml version="1.0" encoding="UTF-8"?>
<svg id="Capa_2" data-name="Capa 2" xmlns="http://www.w3.org/2000/svg" viewBox="0 0 122.01 48.11">
  <defs>
    <style>
      .cls-1 {
        fill: #fff;
      }
    </style>
  </defs>
  <g id="Capa_2-2" data-name="Capa 2">
    <g id="Capa_1-2" data-name="Capa 1-2">
      <g id="Group_170" data-name="Group 170">
        <g id="Taylor">
          <path id="Path_23" data-name="Path 23" class="cls-1" d="m58.56,43.67c2.07-1.93,3.18-4.69,3.02-7.51,0-.06-.05-.12-.11-.12-.06.02-.12.04-.18.06-2.81,1.12-6.01.57-8.29-1.41-1.58,1.67-3.79,2.62-6.09,2.62-1.81,0-3.58-.58-5.02-1.67-1.65,1.89-4.03,2.98-6.54,3-1.81.04-3.58-.46-5.1-1.44-1.39,1.75-3.42,2.87-5.64,3.12-5.92.79-9.16,1.61-12.66,4.42l-.34.28-1.04-1.19.37-.3c2.73-2.12,4.24-5.45,4.02-8.9V10.84c-2.37.12-4.88.19-7.14.2-1.13.03-2.01.97-1.98,2.1,0,1.09.77,2.06,2.43,2.18-1.19.41-2.47.5-3.7.26-1.48-.25-2.79-1.07-3.67-2.28C.02,11.97-.22,10.34.21,8.82c.8-2.37,3.04-3.95,5.53-3.92,6.9.01,13.8-.44,20.64-1.36,3.9-.53,7.77-1.19,11.44-2.04.45,3.64-2.14,6.96-5.78,7.41-.07,0-.14.02-.22.02-3.47.62-7.07,1.11-10.72,1.45l-.02,22.07c0,1.42,1.15,2.56,2.56,2.56s2.56-1.15,2.56-2.56h0v-4.88c-.04-2.36.35-4.71,1.14-6.94,1.79-4.53,5.64-7.03,10.83-7.03h1.01c1.51.07,3.01-.1,4.46-.53l.61-.21v15.72c.04,1.65,1.41,2.96,3.05,2.93,1.61-.03,2.9-1.33,2.93-2.93v-11.12c0-.56-.47-1-1.02-.99-.34,0-.67.17-.88.43-.15-2.2,1.51-4.11,3.71-4.26.1,0,.21-.01.31,0,2.23,0,4.04,1.8,4.05,4.03l-.02,11.69c0,1.42,1.15,2.58,2.58,2.58s2.58-1.15,2.58-2.58v-15.16h6.16v15.04c0,1.56,1.27,2.82,2.83,2.82s2.81-1.26,2.82-2.82V3.1c0-.86-.7-1.56-1.57-1.56h-.46V0h8.18v29.53c0,1.26,1.02,2.28,2.28,2.28s2.28-1.02,2.28-2.28h0v-4.84c0-7.09,3.85-12.04,9.36-12.04,2.3.04,4.49.98,6.12,2.61.24.21.47.42.7.62,1.23,1.1,2.12,1.9,3.28,1.9,1.27,0,2.11-.57,3.23-2.19.72-1.13,1.97-1.82,3.31-1.82,1.13,0,2.21.5,2.94,1.37,1.1-.66,2.36-1,3.64-1,1.91.02,3.74.78,5.1,2.12l.27.25-2.81,4.6c-.71-.7-1.64-1.12-2.64-1.19-1.87,0-3.39,1.51-3.4,3.38l.02,11.69c-.08,2.2.98,4.28,2.82,5.5l.29.19-.49,1.48-.46-.2c-3.51-1.51-7.24-2.47-11.04-2.84l-.41-.04v-1.48h.45c1.38.08,2.57-.96,2.66-2.34v-.43l.02-10.17c0-1.16-.94-2.1-2.1-2.1s-2.1.94-2.1,2.1h0l-.02,1.81c0,7.08-3.85,12.03-9.36,12.03-2.51.03-4.89-1.09-6.47-3.03-3.38,2.93-8.48,2.62-11.47-.71-2.11,1.89-5.08,2.48-7.75,1.55.05,2.75-.72,5.45-2.2,7.76-1.58,2.57-4.4,4.11-7.42,4.04-2.5.04-4.85-1.21-6.21-3.31.77.36,1.62.55,2.47.55,1.56,0,3.06-.62,4.18-1.7m-20.45-24.26c-1.38-.02-2.71.49-3.73,1.42-.58.6-1.05,1.3-1.37,2.07-.49,1.3-.75,2.68-.76,4.07v.16c-.12,1.47.14,2.94.75,4.28.43.94,1.37,1.54,2.4,1.54,1.57,0,2.72-1.33,2.72-3.17v-10.37h-.01Zm55.31-.66c-.96,0-3.2.58-3.2,5.95v1.76c0,5.37,2.24,5.95,3.2,5.95s3.2-.58,3.2-5.95v-1.76c0-5.37-2.24-5.95-3.2-5.95"/>
        </g>
      </g>
    </g>
  </g>
</svg>