<?xml version="1.0" encoding="UTF-8"?>
<svg id="Capa_2" data-name="Capa 2" xmlns="http://www.w3.org/2000/svg" viewBox="0 0 89.01 40.28">
  <defs>
    <style>
      .cls-1 {
        fill: #fff;
        fill-rule: evenodd;
      }
    </style>
  </defs>
  <g id="Capa_2-2" data-name="Capa 2">
    <g id="Capa_1-2" data-name="Capa 1-2">
      <path class="cls-1" d="m83.55.5s1.42-.43,1.47.93c.02.45.02,1.14.03,1.87v.44h0v2.57l-4.69,1.44s-.52,3.09.81,2.69c1.35-.41,1.47-1.2,1.62-1.69,0,0,1.24-.43,2.21-.72h0v2.53l-6.18,1.94s-1.9.47-1.92-1.85c0-1.04.04-2.48.02-3.86-.25.23-1.02.77-1.31,1.08.03,2.6.04,6.77.04,9.64v3.18l.47-.14.41-1.47s.52-.16,1.02-.32.41.41.41.41c0,0-.32,1.92-.59,2.93-.27.99-1.08,1.24-1.08,1.24,0,0-2.37.77-3.09.99-.66.2-.7-.52-.7-.69v-9c0-2.4,0-4.49-.02-5.05-.01-.95-.02-1.36-.02-1.53v-.12s-.34-.2-.84.18c-.29.23-.86.72-1.17,1.04h0v6.03l-2.73.88.02-2.87c-.36.32-.59,1.13-1.69,1.44,0,.34-.02.63-.05.81-.18,1.33-.59,1.33-3.07,2.14-2.41.79-2.93.9-2.93.9,0,0-1.6-.23-1.69-2.89h0v-2.37s-.83-.52-1.65.54v5.77l-3.23,1.02-.02-6.5s-.43-1.65-2.3.86h0v6.43l-2.96.9v-2.69h0l-.04.03c-.17.14-.95.75-1.7,1.15h0v.61c0,1.47-.79,1.74-.79,1.74h0l-3.41,1.06v10.09l-3.38,1.04.02-14.13c-.81,1.2-3,4.42-3.45,4.83-.56.52-1.31,1.24-1.99.61-.41-.38-.5-1.76-.5-1.76h0l-2.19,1.08v.81c0,1.15-.9,1.35-.9,1.35h0l-3.34,1.11v10.06l-3.34,1.04v-10.74c-.61.41-4.78,3.32-8.06,4.31-2.93.9-8.58,2.05-11.31-6.03h0l-3.77,1.17.29-1.62,3.2-.99c-.07-1.04.05-3.09.86-5.24,1.15-3.09,3-5.37,7.79-6.86,0,0,4.72-1.35,8.8.56h0l-1.33,1.87s-4.31-1.22-7.04-.38c-2.62.81-5.21,3.23-4.65,8.62h0l13.16-4.22-.29,1.62-12.68,4.13c.95,4.9,7.18,5.33,10.2,3.81,0,0,2.8-1.02,4.83-3.16h0l.07-7.11,3.34-1.04-.07,8.76,1.24-.38v-8.21s-.56,0-.34-.54c.23-.54,1.92-1.02,1.92-1.02,1.44-.16,1.42,1.17,1.42,1.17v.14c0,.56-.02,2.71-.02,4.57v.44c.16.02.7-.11.95-.2.38-.16,1.44-1.15,1.31-6.81h0l3.05-.95v5.21s.05.54.41.09c.29-.36,1.87-2.66,2.41-3.5h0l-.02-2.73,3.38-1.04v8.71l1.24-.38-.02-8.46s-.56,0-.34-.54c.23-.54,2.05-1.06,2.05-1.06,1.13-.13,1.25.79,1.26,1.1v.09h0v5.2c.61,0,1.78-.32,1.76-2.14,0-.92,0-3.23-.02-5.75V1.87l2.98-.93.02,11.12c.83-.27,2.05-2.17,3.9-2.46.79-.11,1.56.7,1.62,1.83.09-.09.74-.43.9-.68.47-.79.97-2.46,2.84-3.05s2.08.2,2.12.36c.05.16.18.59-.9,1.08,0,0-.43.05-.41,1.31v2.49c0,1.09.02,2.11.02,2.34v.05s.09,1.15,1.02.86c.93-.27,1.04-.47,1.06-1.51v-1.47c0-1.77-.02-4.43-.03-4.99v-.1h0s-.47-.37-.54-.6.68-.59,1.11-.72c.43-.14,1.92-.29,2.1,1.13.11.86,0,3.11.04,4.87.43-.11.47-.38,1.67-1.83h0v-5.35l2.73-.86v1.26l.23-.09c.68-.18,1.69-1.78,3.23-2.26,1.56-.47,1.74,1.6,1.74,1.9h0v.18c.2-.07.99-.43,1.33-.95,0-.72.02-1.22.02-1.22,0,0-.14-1.06,1.56-1.58,1.2-.38,3.25-1.02,4.35-1.35l.27-.08c.29-.09.46-.14.46-.14h0l-.02.05v.02Zm-50.11,9.05c1.02-.32,2.1.25,2.41,1.26.32,1.02-.25,2.1-1.26,2.41-1.02.32-2.1-.25-2.41-1.26-.32-1.02.25-2.1,1.26-2.41Zm48.21-6.39h-.05c-.14.05-1.06.32-1.06.32,0,0-.16.02-.16.14h0v2.53s.11.16.29.11c.18-.05.95-.27.95-.27,0,0,.14-.07.14-.2h0v-2.44s-.02-.23-.16-.18h.05Zm5.93-3.17c.77,0,1.42.59,1.44,1.38h0v.09c-.02.79-.68,1.38-1.44,1.38s-1.44-.59-1.44-1.42S86.78.01,87.57.01h0Zm0,.24c-.63,0-1.15.5-1.15,1.17s.5,1.2,1.15,1.2,1.15-.52,1.15-1.2-.5-1.17-1.15-1.17Zm.07.36c.38,0,.59.16.59.47h-.02c0,.29-.18.43-.43.45h0l.47.72h-.27l-.43-.72h-.29v.72h-.25V.61s.63,0,.63,0Zm-.02.2h-.34v.52h.29c.23,0,.41-.02.41-.27,0-.2-.18-.25-.36-.25h0Z"/>
    </g>
  </g>
</svg>