<?xml version="1.0" encoding="UTF-8"?>
<svg width="129px" height="85px" viewBox="0 0 129 85" version="1.1" xmlns="http://www.w3.org/2000/svg" xmlns:xlink="http://www.w3.org/1999/xlink">
    <title>epiphone</title>
    <g id="Kramer" stroke="none" stroke-width="1" fill="none" fill-rule="evenodd">
        <g id="Artboard" transform="translate(-790.000000, -498.000000)">
            <g id="epiphone" transform="translate(790.000000, 498.000000)">
                <rect id="bg" fill="#FFFFFF" x="0" y="0" width="129" height="85"></rect>
                <path d="M98.6194349,67.6137778 C99.9284243,67.6137778 100.583076,68.2906792 100.583076,68.2906792 L99.9961144,69.2160912 C99.9961144,69.2160912 99.4768433,68.7422602 98.7551285,68.7422602 C97.6943363,68.7422602 97.265632,69.4191616 97.265632,70.1863165 C97.265632,71.1568553 97.9425335,71.7206264 98.7322518,71.7206264 C99.3188996,71.7206264 99.7704806,71.3599257 99.7704806,71.3599257 L99.7704806,70.9760349 L99.0481391,70.9760349 L99.0481391,69.915556 L100.876086,69.915556 L100.876086,72.7814187 L99.8381708,72.7814187 L99.8381708,72.442968 L99.815294,72.442968 C99.815294,72.442968 99.3188996,72.8945489 98.4840546,72.8945489 C97.1753785,72.8945489 95.979206,71.9240102 95.979206,70.2543201 C95.979206,68.787387 97.085125,67.6363412 98.6419982,67.6363412 L98.6194349,67.6137778 Z M49.3131528,67.6137778 C50.8474627,67.6137778 51.9759451,68.7422602 51.9759451,70.2088799 C51.9759451,71.6983764 50.8474627,72.8716722 49.3131528,72.8716722 C47.778843,72.8716722 46.6503606,71.6983764 46.6503606,70.2088799 C46.6503606,68.7422602 47.778843,67.6137778 49.3131528,67.6137778 Z M84.9443968,67.5914965 C86.0280658,67.5914965 86.5692736,68.155581 86.5692736,68.155581 L86.0503158,69.1709331 C86.0503158,69.1709331 85.5313581,68.7193521 84.9221468,68.7193521 C84.6736363,68.7193521 84.3806257,68.8324824 84.3806257,69.1258063 C84.3806257,69.757581 86.6595271,69.6450775 86.6595271,71.2470775 C86.6595271,72.0819225 86.0051891,72.8265141 84.8770201,72.8265141 C83.6808475,72.8265141 83.0265095,72.1044859 83.0265095,72.1044859 L83.662,71.182 C83.7423228,71.2508764 84.2900812,71.6983451 84.8770201,71.6983451 C85.1252173,71.6983451 85.4185412,71.6080915 85.4185412,71.2918908 C85.4185412,70.6826796 83.1393264,70.705243 83.1393264,69.1483697 C83.1393264,68.2007077 83.9290447,67.5914965 84.9443968,67.5914965 Z M46.1989363,67.6815933 L46.1989363,68.7646356 L44.3258623,68.7646356 L44.3258623,69.8254278 L45.8830489,69.8254278 L45.8830489,70.8859067 L44.3258623,70.8859067 L44.3258623,72.781544 L43.0848764,72.781544 L43.0848764,67.6815933 L46.1989363,67.6815933 Z M62.4915458,67.6817187 L62.4915458,68.7647609 L60.5507817,68.7647609 L60.5507817,69.6898595 L62.0854049,69.6898595 L62.0854049,70.7506518 L60.5507817,70.7506518 L60.5507817,71.6983137 L62.5817993,71.6983137 L62.5817993,72.781356 L59.3097958,72.781356 L59.3097958,67.6817187 L62.4915458,67.6817187 Z M71.4501165,67.6817187 L71.4501165,68.7647609 L69.5096658,68.7647609 L69.5096658,69.6898595 L71.0668525,69.6898595 L71.0668525,70.7506518 L69.5096658,70.7506518 L69.5096658,71.6983137 L71.5632468,71.6983137 L71.5632468,72.781356 L68.2683665,72.781356 L68.2683665,67.6817187 L71.4501165,67.6817187 Z M91.2630521,67.6817187 L91.2630521,68.7647609 L89.7061789,68.7647609 L89.7061789,72.781356 L88.4648796,72.781356 L88.4648796,68.7647609 L86.9305697,68.7647609 L86.9305697,67.6817187 L91.2630521,67.6817187 Z M94.0159412,67.7041567 L95.7536349,72.781544 L94.4675222,72.781544 L94.1516349,71.7207518 L92.5718849,71.7207518 L92.2559975,72.781544 L90.9698849,72.781544 L92.7075785,67.7041567 L94.0159412,67.7041567 Z M104.960622,67.6817187 L104.960622,68.7647609 L103.019858,68.7647609 L103.019858,69.6898595 L104.554481,69.6898595 L104.554481,70.7506518 L103.019858,70.7506518 L103.019858,71.6983137 L105.050876,71.6983137 L105.050876,72.781356 L101.756309,72.781356 L101.756309,67.6817187 L104.960622,67.6817187 Z M54.5710785,67.6817187 C55.0900363,67.6817187 55.3382335,67.7268454 55.5638673,67.7942222 C56.1505151,68.0201694 56.5115292,68.5391271 56.5115292,69.2611553 C56.5115292,69.8029898 56.263332,70.3896377 55.7443743,70.6378349 L55.7443743,70.6603982 C55.7443743,70.6603982 55.8120644,70.7506518 55.9474447,70.9762856 L56.9402335,72.7587926 L55.5638673,72.7587926 L54.661332,71.0439757 L54.0743708,71.0439757 L54.0743708,72.7587926 L52.8333849,72.7587926 L52.8333849,67.6817187 L54.5710785,67.6817187 Z M74.2032563,67.6817187 C74.7222141,67.6817187 74.9704113,67.7268454 75.1960451,67.7942222 C75.782693,68.0201694 76.1440204,68.5391271 76.1440204,69.2611553 C76.1440204,69.8029898 75.8958232,70.3896377 75.3765521,70.6378349 L75.3765521,70.6603982 C75.3765521,70.6603982 75.4442423,70.7506518 75.5799359,70.9762856 L76.5727246,72.7587926 L75.1960451,72.7587926 L74.2935099,71.0439757 L73.706862,71.0439757 L73.706862,72.7587926 L72.4655627,72.7587926 L72.4655627,67.6817187 L74.2032563,67.6817187 Z M64.1839246,67.6817187 L65.0864599,70.5701447 C65.1767134,70.886032 65.2898437,71.3824264 65.2898437,71.3824264 L65.312407,71.3824264 C65.312407,71.3824264 65.4026606,70.886032 65.4929141,70.5701447 L66.3954493,67.6817187 L67.7270021,67.6817187 L65.9441817,72.7587926 L64.658069,72.7587926 L62.8526852,67.6817187 L64.1839246,67.6817187 Z M78.0168123,67.68175 L78.6034602,68.9001725 C78.7617173,69.2386232 78.9196609,69.6222007 78.9196609,69.6222007 L78.9419109,69.6222007 C78.9419109,69.6222007 79.0776046,69.2386232 79.2581116,68.9001725 L79.8221961,67.68175 L81.2440025,67.68175 L79.5739989,70.6826796 L79.5739989,72.7588239 L78.333013,72.7588239 L78.333013,70.6826796 L78.2650095,70.6826796 L76.5953194,67.68175 L78.0168123,67.68175 Z M49.3131528,68.7422602 C48.5459979,68.7422602 47.9364732,69.3740349 47.9364732,70.2088799 C47.9364732,71.0666018 48.5459979,71.7206264 49.3131528,71.7206264 C50.0803077,71.7206264 50.689519,71.0666018 50.689519,70.2088799 C50.689519,69.3740349 50.0803077,68.7422602 49.3131528,68.7422602 Z M93.3616032,68.8548891 C93.3616032,68.8548891 93.2487863,69.4189736 93.1585327,69.7351743 L92.8655222,70.727963 L93.8579975,70.727963 L93.564987,69.7351743 C93.4829383,69.4477191 93.3819832,68.9554013 93.3643059,68.8682646 L93.3616032,68.8548891 Z M74.1130028,68.7421975 L73.6842986,68.7421975 L73.6842986,69.9834968 L74.2258197,69.9834968 C74.6319606,69.9834968 74.8801577,69.7575496 74.8801577,69.3514088 C74.8801577,68.9678313 74.7450908,68.7421975 74.1130028,68.7421975 Z M54.480825,68.7421975 L54.0518074,68.7421975 L54.0518074,69.9834968 L54.5933285,69.9834968 C54.9997827,69.9834968 55.2479799,69.7575496 55.2479799,69.3514088 C55.2479799,68.9678313 55.1125996,68.7421975 54.480825,68.7421975 Z M103.539035,20.4962377 C103.539035,20.4962377 104.960528,20.0675335 105.005655,21.4216496 C105.020697,21.8729173 105.028253,22.5648957 105.031642,23.2869703 L105.033202,23.7221417 L105.033202,23.7221417 L105.033922,24.1544266 C105.034039,24.2969173 105.034043,24.4372419 105.03396,24.5737156 L105.033088,25.1561671 C105.032234,25.5195569 105.030956,25.8255421 105.029971,26.02863 L105.02911,26.1957337 C105.028991,26.2173062 105.028887,26.2355992 105.028802,26.2504021 L105.028532,26.2956532 L100.334408,27.7400229 C100.334408,27.7400229 99.8154507,30.8315194 101.147004,30.4253785 C102.500806,30.0192377 102.613937,29.229206 102.771567,28.7328116 C102.771567,28.7328116 104.012553,28.3041074 104.983092,28.0107835 L104.983092,28.0107835 L104.983092,30.5381954 L98.8000986,32.4786461 C98.8000986,32.4786461 96.9047746,32.9527905 96.8822113,30.6284489 C96.8822113,29.5905335 96.9270246,28.1461637 96.9047746,26.7697975 C96.6562641,26.995118 95.8891092,27.5369525 95.5957852,27.8528398 C95.6231836,30.4558771 95.6339473,34.6229263 95.6381758,37.4952921 L95.6388563,37.9881587 C95.6389591,38.0678692 95.6390567,38.1463144 95.6391495,38.2234213 L95.6398595,38.8792895 C95.6399252,38.9477128 95.6399869,39.0145798 95.6400447,39.0798176 L95.640912,40.6704067 L96.114743,40.534713 L96.5208838,39.0680933 C96.5208838,39.0680933 97.0398415,38.9101496 97.5362359,38.7518926 C98.0326303,38.5942623 97.9423768,39.1583468 97.9423768,39.1583468 C97.9423768,39.1583468 97.6268028,41.0762342 97.3557289,42.0918996 C97.0849683,43.0846884 96.2726866,43.3328856 96.2726866,43.3328856 C96.2726866,43.3328856 93.9035317,44.1000405 93.1811901,44.3259877 C92.5241976,44.5250763 92.4820376,43.8104554 92.481211,43.6395538 L92.4810757,40.7755667 C92.4810396,40.6832116 92.4810016,40.5893233 92.4809613,40.4940168 L92.4801855,38.9723813 C92.4801214,38.8657591 92.4800545,38.758292 92.4799849,38.6500949 L92.4790087,37.3240263 C92.478915,37.2118238 92.4788181,37.09935 92.4787179,36.9867197 L92.4780754,36.3099769 C92.4777332,35.9715839 92.4773589,35.6338467 92.4769496,35.2998624 L92.4760832,34.6378155 C92.4727284,32.2353874 92.4673789,30.1458221 92.4588486,29.5905335 C92.4446895,28.6426721 92.4395407,28.2340345 92.4376685,28.0621806 L92.4370499,28.0021442 C92.4369747,27.9942604 92.436912,27.9873642 92.4368598,27.9813454 L92.4365986,27.9430933 C92.4365986,27.9430933 92.0981479,27.7400229 91.6017535,28.1236004 C91.3081162,28.3492342 90.7443451,28.8456285 90.4281444,29.1615158 L90.4281444,29.1615158 L90.4281444,35.1865651 L87.697662,36.0668504 L87.7202254,33.2009877 C87.3592113,33.516875 87.1335775,34.3291567 86.0279718,34.645044 C86.0279718,34.9838081 86.0054085,35.277132 85.9825317,35.4576391 C85.8020246,36.7888785 85.3958838,36.7888785 82.9135986,37.6011602 C80.4990035,38.3911919 79.9800458,38.5036954 79.9800458,38.5036954 C79.9800458,38.5036954 78.3780458,38.278375 78.2877923,35.6155827 L78.2877923,35.6155827 L78.2877923,33.2461144 C78.2877923,33.2461144 77.4529472,32.7268433 76.6403521,33.7876356 C76.6348822,34.3729919 76.6320644,35.014042 76.6309342,35.6493815 L76.6308325,37.0433543 C76.6323356,38.079764 76.6367922,38.9576479 76.6390336,39.3479185 L76.6398435,39.484364 C76.6399509,39.5018095 76.6400432,39.5165273 76.6401185,39.5283975 L76.6403521,39.5644877 L73.4134754,40.5798398 L73.390912,34.0809595 C73.390912,34.0809595 72.9618944,32.4335194 71.0891338,34.938368 L71.0891338,34.938368 L71.0891338,41.3695581 L68.1330176,42.2724067 L68.1330176,39.5870511 L68.1330176,39.5870511 L68.0979481,39.6154154 C67.9262734,39.7531968 67.1521373,40.3622064 66.3953239,40.7606602 L66.3953239,40.7606602 L66.3953239,41.3695581 C66.3953239,42.8364912 65.6056056,43.1072518 65.6056056,43.1072518 L65.6056056,43.1072518 L62.1982218,44.168044 L62.1982218,54.2551285 L58.8134014,55.2927306 L58.8359648,41.1668011 C58.0236831,42.3626602 55.8347218,45.589537 55.3834542,45.9956778 C54.8190563,46.5146356 54.0744648,47.2369771 53.3975634,46.6052025 C52.9914225,46.2213116 52.901169,44.8449454 52.901169,44.8449454 L52.901169,44.8449454 L50.7122077,45.9279877 L50.7122077,46.7405827 C50.7122077,47.8913151 49.8096725,48.0943856 49.8096725,48.0943856 L49.8096725,48.0943856 L46.4696655,49.2003046 L46.4696655,59.2645123 L43.1299718,60.3024278 L43.1299718,49.5610053 C42.5207606,49.9674595 38.3459085,52.8784489 35.0742183,53.8712377 C32.1403521,54.7737729 26.4988803,55.9248187 23.7683979,47.845875 L23.7683979,47.845875 L20,49.0197975 L20.2933239,47.3949208 L23.4976373,46.402132 C23.4299472,45.3639032 23.5427641,43.3103222 24.3550458,41.1668011 C25.5060915,38.0749912 27.3566021,35.7960898 32.1403521,34.3065933 C32.1403521,34.3065933 36.8567254,32.9527905 40.9410106,34.8706778 L40.9410106,34.8706778 L39.6097711,36.7437518 C39.6097711,36.7437518 35.2995387,35.5253292 32.5690563,36.3601743 C29.9513908,37.172456 27.3566021,39.5870511 27.9206866,44.9803257 L27.9206866,44.9803257 L41.0763908,40.7606602 L40.7830669,42.3852236 L28.1011937,46.5146356 C29.0488556,51.4115158 35.2772887,51.8405335 38.3007817,50.3281602 C38.3007817,50.3281602 41.0992676,49.3128081 43.1299718,47.1689736 L43.1299718,47.1689736 L43.197662,40.060882 L46.537669,39.0229665 L46.4696655,47.7784982 L47.7109648,47.3949208 L47.7109648,39.1809102 C47.7109648,39.1809102 47.1465669,39.1809102 47.3725141,38.6393891 C47.5981479,38.097868 49.2904014,37.6237236 49.2904014,37.6237236 C50.7347711,37.4657799 50.7122077,38.7970194 50.7122077,38.7970194 C50.7120934,38.8119257 50.712026,38.8207731 50.7119381,38.832409 L50.7111777,38.9347231 C50.7070878,39.4924267 50.6921104,41.6423699 50.689914,43.5022568 L50.6896444,43.9420968 C50.847588,43.9649736 51.3891092,43.8295933 51.6373063,43.7390264 C52.0208838,43.5813961 53.0816761,42.588294 52.9462958,36.9242588 L52.9462958,36.9242588 L55.9926655,35.9762835 L55.9926655,41.1893644 C55.9926655,41.1893644 56.0377923,41.7308856 56.3988063,41.2793046 C56.6921303,40.9186039 58.2715669,38.6168257 58.8134014,37.7816673 L58.8134014,37.7816673 L58.790838,35.0511849 L62.1756585,34.0132694 L62.1756585,42.7236743 L63.4166444,42.3400968 L63.394081,33.8778891 C63.394081,33.8778891 62.8299965,33.8778891 63.0556303,33.336368 C63.2812641,32.7948468 65.1092113,32.2755757 65.1092113,32.2755757 C66.2373803,32.1442171 66.3627324,33.0624649 66.3731784,33.3721963 L66.3731196,33.4649044 L66.3731196,33.4649044 L66.3727606,33.4717482 L66.3727606,38.6619525 C66.9819718,38.6619525 68.1558944,38.3460651 68.1330176,36.518118 C68.1245101,35.5991894 68.1192103,33.2911725 68.1159089,30.772217 L68.1150921,30.1110878 C68.1149633,30.0003603 68.1148381,29.8894278 68.1147163,29.778387 L68.1140266,29.1116176 C68.1139183,29.0005311 68.1138134,28.88953 68.1137116,28.7787112 L68.1131382,28.1167595 C68.1130487,28.0070569 68.1129623,27.8977302 68.1128786,27.7888763 L68.1120075,26.5115175 C68.1119453,26.4079947 68.1118857,26.305332 68.1118284,26.2036262 L68.111034,24.4971816 C68.1110018,24.4104444 68.1109713,24.3252451 68.1109426,24.2416806 L68.1104542,21.8729173 L71.0891338,20.9475053 L71.1116972,32.0725053 C71.9465423,31.8017447 73.1652782,29.9061074 75.0154754,29.6127835 C75.805507,29.4999665 76.572662,30.3125616 76.6403521,31.4407306 C76.7306056,31.3504771 77.385257,31.0120264 77.5432007,30.7638292 C78.0167183,29.9741109 78.5131127,28.3041074 80.3865,27.7174595 C82.2592606,27.1304982 82.462331,27.9205299 82.5074577,28.0784736 C82.5525845,28.2364173 82.6882782,28.6651215 81.6049225,29.1615158 C81.6049225,29.1615158 81.1759049,29.2066426 81.1987817,30.4705053 L81.1988552,30.606571 C81.1989037,30.6543384 81.1989756,30.7044451 81.1990692,30.7566731 L81.1998781,31.0937512 C81.200921,31.4527941 81.2026258,31.8724967 81.2046315,32.3057415 L81.2078204,32.9598756 C81.213361,34.0473946 81.2196537,35.0723108 81.2210576,35.2984153 L81.2213451,35.3445088 C81.2213451,35.3445088 81.3115986,36.4955546 82.2366972,36.2022306 C83.1617958,35.9311567 83.2749261,35.7280863 83.2974894,34.6901708 C83.3005797,34.5460158 83.3023763,34.315234 83.303179,34.024669 L83.3033506,33.2262735 C83.300491,31.4548915 83.2802562,28.8008913 83.2757949,28.2329824 L83.2750274,28.1361834 L83.2750274,28.1361834 L83.2749261,28.1236004 C83.2749261,28.1236004 82.8007817,27.7625863 82.7330915,27.5369525 C82.6654014,27.3113187 83.409993,26.9499912 83.8386972,26.8149243 C84.2677148,26.679544 85.7572113,26.521287 85.9377183,27.9430933 C86.0502218,28.8005018 85.9377183,31.0571532 85.9825317,32.8170968 C86.4112359,32.7045933 86.4566761,32.4335194 87.6525352,30.989463 L87.6525352,30.989463 L87.6525352,25.6413151 L90.3830176,24.7839067 L90.3830176,26.047456 L90.6086514,25.9572025 C91.2855528,25.7766954 92.3009049,24.174382 93.8355282,23.7005511 C95.3927148,23.2267201 95.5732218,25.3028644 95.5732218,25.5961884 L95.5732218,25.5961884 L95.5732218,25.7766954 C95.7762923,25.7090053 96.5660106,25.3479912 96.9047746,24.8290335 C96.9047746,24.1070053 96.9270246,23.6102975 96.9270246,23.6102975 C96.9270246,23.6102975 96.7916444,22.5498187 98.4842113,22.0308609 C99.6851654,21.6465556 101.738725,21.0120874 102.82989,20.6760785 L103.102255,20.5922517 C103.388996,20.5040487 103.561599,20.4511109 103.561599,20.4511109 L103.561599,20.4511109 Z M53.4202521,29.545344 C54.4356042,29.2291433 55.5186465,29.7935412 55.8345338,30.8088933 C56.1507345,31.8242454 55.5863366,32.9076011 54.5709845,33.2234884 C53.555319,33.5393757 52.4722768,32.9752912 52.1563894,31.9596257 C51.8405021,30.9442736 52.4045866,29.8612313 53.4202521,29.545344 Z M101.627084,23.1548199 L101.575708,23.1590299 C101.440014,23.2041567 100.514915,23.4749173 100.514915,23.4749173 C100.514915,23.4749173 100.356972,23.4974806 100.356972,23.6102975 L100.356972,23.6102975 L100.356972,26.1377095 C100.356972,26.1377095 100.470102,26.2956532 100.650609,26.2505264 C100.831116,26.2053996 101.598271,25.9797658 101.598271,25.9797658 C101.598271,25.9797658 101.733651,25.9120757 101.733651,25.7766954 L101.733651,25.7766954 L101.733651,23.339537 C101.733651,23.339537 101.711088,23.1139032 101.575708,23.1590299 Z M107.555787,20 C108.322942,20 108.97728,20.5866479 108.999843,21.3763662 L108.999843,21.3763662 L108.999843,21.4666197 C108.97728,22.256338 108.322942,22.8429859 107.555787,22.8429859 C106.765755,22.8429859 106.111417,22.256338 106.111417,21.421493 C106.111417,20.6092113 106.765755,20 107.555787,20 Z M107.555787,20.2481972 C106.923699,20.2481972 106.404741,20.7445915 106.404741,21.421493 C106.404741,22.1209577 106.901449,22.6176655 107.555787,22.6176655 C108.187562,22.6176655 108.706519,22.0983944 108.706519,21.421493 C108.706519,20.7671549 108.209812,20.2481972 107.555787,20.2481972 Z M107.62332,20.6092426 C108.007211,20.6092426 108.209968,20.7671863 108.209968,21.0830736 L108.209968,21.0830736 L108.187718,21.0830736 C108.187718,21.3763975 108.007211,21.5117778 107.759014,21.5343412 L107.759014,21.5343412 L108.232532,22.2563694 L107.961771,22.2563694 L107.533067,21.5343412 L107.239743,21.5343412 L107.239743,22.2563694 L106.991546,22.2563694 L106.991546,20.6092426 Z M107.600757,20.812313 L107.262306,20.812313 L107.262306,21.3312708 L107.55563,21.3312708 C107.781264,21.3312708 107.961771,21.3087074 107.961771,21.0605102 C107.961771,20.8574398 107.781264,20.812313 107.600757,20.812313 L107.600757,20.812313 Z" id="Combined-Shape" fill="#000000"></path>
            </g>
        </g>
    </g>
</svg>