<?xml version="1.0" encoding="UTF-8"?>
<svg id="Capa_2" data-name="Capa 2" xmlns="http://www.w3.org/2000/svg" viewBox="0 0 110.28 41.32">
  <defs>
    <style>
      .cls-1 {
        fill: #f9f9f9;
      }
    </style>
  </defs>
  <g id="Capa_2-2" data-name="Capa 2">
    <g id="Capa_1-2" data-name="Capa 1-2">
      <path class="cls-1" d="m85.77,0c-.66,0-1.37.18-1.79.46-1.09.73-5.1,13.19-6.77,19.6,0,0-.36,1.33-.84,4.4-.08.5-.33,2.45-.44,3.05-.42,2.26-2.03,3.47-3.43,3.21-1.74-.33-1.99-2.92-1.53-4.84.51-2.11,2.25-4.49,4.25-3.91.96.22,1.46.11,1.53-.53.08-.83-.91-1.33-.91-1.33-3.83-1.93-7.26,1.23-8.14,5.68-1.03,5.2,2.19,9.34,7.41,6.37,1.64-.93,1.55,1.24,5.22,1.11,2.67-.26,4.2-2.23,2.81-3.32-.91-.71-1.52.68-3.03.49-3.23-.42.39-9.79,2.26-15.64,1.6-4.99,3.37-8.57,4.89-12.61.61-1.63-.38-2.19-1.49-2.19ZM27.42,1.06c-5.54.15-15.83,5.44-23.6,11.57-3.18,2.77-5.02,3.43-2.94,5.64,1.85,1.85,3.03.44,3.03.44,1.75-1.38,5.54-5.25,8.03-7.1,3.55-2.63,8.45-6.42,12.78-7.43,3.44-.87,4.49.14,4.03,3.65-.27,3.01-2.59,9.78-2.59,9.78,0,0-3.56,1.6-4.62,1.99-.83.31-1.7.1-1.79,1.99-.04,2.03,1.19,1.27,2.01.95.64-.24,2.14-.96,2.7-1.19.42-.32.87-.05.64.55-.42,1.34-1.17,3.52-2.59,6.66-1.8,4.29-5.03,10.16-5.44,11.63.05.97,1.1,1.11,2.5,1.13,1.29-.1,1.88-1,1.88-1,0,0,1.67-3.6,4.25-9.93,1.87-4.6,3.09-8.39,3.61-10.11.28-1.01.87-1.23,1.66-1.42,1.17-.38,2.82-.9,3.83-1.08,2.54-.63,3.28-.49,3.61-2.26.23-1.23-.31-1.79-.31-1.79,0,0-5.54,1.73-6.66,2.03-.97.41-.8-.6-.8-.6,0,0-.14.64.46-1.99,1.82-8,.76-10.13-.69-11.35-.69-.57-1.71-.81-2.99-.77h0Zm75.18,14.21c-.95-.04-3.12,1.57-2.28,5.68-1.15,4.34-9.95,11.91-11.13,8.85-.29-.74.48-1.97,2.5-2.39,3.32-.69,3.04-2.76,1.46-2.96-2.49-.32-3.18-.32-6.15-1.02-1.17-.12-1.14-1.68.24-1.66.57-.02,2,.17,5.04.29,3.19.12,3.82-2.36,3.69-3.89-3.26.7-4.03.88-6.83.88-2.95,0-6.59.81-6.66,3.41-.07,2.58,3.31,3.16,5.07,3.65.48.12.65.52.33.77-.75.6-2.43,1.38-2.63,2.79-.28,1.99,1.53,3.57,3.83,3.52,3.06-.06,6.46-1.36,9.71-5.26.92-1.1,1.95-2.96,2.59-3.78.15-.3.58-.44.77-.42.58.13,1.42.56,1.3,1.19-.17.97-2.81,3.98-1.06,5.8,1.07,1.11,3.79,1.9,5.95.33,2.02-1.47,1.31-2.8.51-2.9-.57-.07-2.18,1.94-3.47.51-1.07-1.19,1.48-3.64,1.99-4.51.73-1.26-2.12-2.24-3.32-3.8-.77-1.03,1.23-4.18-1.28-5.02-.05-.02-.11-.04-.18-.04h0v-.02Zm5.85,1.59c-.51,0-.95.17-1.31.53s-.53.8-.53,1.3.17.95.53,1.3c.36.36.79.55,1.3.55s.94-.19,1.3-.55c.36-.36.55-.79.55-1.3s-.19-.95-.55-1.3-.79-.53-1.3-.53h0Zm0,.24c.44,0,.82.15,1.13.46s.46.69.46,1.13-.15.82-.46,1.13-.68.46-1.13.46-.82-.15-1.13-.46-.46-.69-.46-1.13.15-.82.46-1.13.69-.46,1.13-.46h0Zm-.75.58v2.01h.35v-.77h.29c.19,0,.32,0,.4.04.13.08.2.23.2.46v.18l.02.07v.02h.33l-.02-.02v-.09s-.02-.11-.02-.15v-.15c0-.1-.04-.2-.11-.31-.07-.11-.17-.17-.33-.2.12-.02.22-.04.29-.09.13-.09.2-.24.2-.42,0-.25-.1-.42-.31-.51-.12-.05-.32-.07-.58-.07h-.71Zm.35.24h.31c.2,0,.35.04.44.09.09.05.13.14.13.29s-.06.25-.2.31c-.08.03-.2.04-.35.04h-.33v-.73Zm-60.67.6c-2.71.81-4.08.71-6.95.71s-7.07.42-6.9,3.32c.15,2.44,3.58,3.12,5.35,3.32.51-.05.66.43.29.69-.8.81-1.71,1.92-1.84,2.83-.27,1.96.74,3.69,3.23,3.65,2.68-.05,3.55-1.99,8.03-4.71,1.25-.76,2.81-2.04,3.45-2.15.25,0,.6.08.58.55-.38,1.79-.79,2.99-.33,4.51.33,1.07,1.74,1.75,2.76.97,1.71-1.29,1.72-2.04,3.94-4.95.37-.48,1.72-2.68,2.34-2.39.52.24.36.96.27,1.53-.47,2.73-1.65,7.03,3.74,6.37,1.28-.16,2.32-1.03,1.35-1.95-.59-.55-1.25-.16-1.99-.33-1.73-.4,2.55-8.27.51-9.73-2.87-2.05-5.53,1.59-7.52,4.25-.79,1.05-1.37.59-1.88-.88-.57-1.64-3.97-.44-5.93.58-3.12,1.61-8.91,7-9.44,4.31-.09-.46.68-1.5,2.08-2.01,1.65-.6,3.49-1.13,3.49-2.12,0-.77-.46-1.31-.95-1.28-2.3.13-4.97.73-8.03-.11-.7,0-1-1.75,1.06-1.53.55.06,1.77.15,6.39.24,3.26.07,3.33-2.38,2.9-3.67h0v-.02Z"/>
    </g>
  </g>
</svg>