<?xml version="1.0" encoding="UTF-8"?>
<svg id="Capa_2" data-name="Capa 2" xmlns="http://www.w3.org/2000/svg" viewBox="0 0 298.24 187.68">
  <defs>
    <style>
      .cls-1 {
        fill: #fff;
      }
    </style>
  </defs>
  <g id="Layer_1" data-name="Layer 1">
    <g>
      <path class="cls-1" d="m70.06,45.03c5.37,0,9.72-4.35,9.72-9.72s-4.35-9.72-9.72-9.72-9.72,4.35-9.72,9.72,4.35,9.72,9.72,9.72"/>
      <path class="cls-1" d="m53.92,57.02v-20.77c0-7.06-6.98-13.48-12.38-11.86-5.37,1.63-27.92,8.52-28.84,8.93-.92.43-12.7,4.97-12.7,17.87l.18,83.78s.51,8.43,9.28,8.26c0,0,2.57,0,6.68-2.23,0,0,10.14-5.55,10.83-5.85.66-.28,6.17-2.05,6.35,5.5v47.05l16.64-5.33v-41.72c0-2.83,2.06-16.85,9.28-22.65.45-.38,3.94-2.63,7.04,1.54,3.13,4.17,5.85,4.8,5.85,4.8,0,0,3.37,1.48,6.35-3.6.18-.36,5.43-9.05,5.67-9.44s1.01-1.56,3.25-1.37c0,0,5.52-.36,4.65,7.38,0,0,25.53-7.75,27.65-8.93.33-.13,10.08-4.03,15.96-13.04,0,0,1.76-2.59,3.96-2.4.39,0,5.82.34,4.27,7.54,0,0,24.75-7.56,26.12-8.24,2.92-1.2,10.65-4.41,10.47-13.38.09-2.67-.63-7.32-4.48-10.66-.21-.21-17.03-12.59-17.18-12.71-1.46-1.24-2.21-4.06.18-7.04,0,0,1.88-2.74,4.65-2.57,0,0,2.09-.09,5.31,4.13.42.41,2.8,3.6,4.47,3.94,0,0,1.37.45,3.07-1.2,4.18-3.62,6.35-3.77,6.35-3.77,0,0,6.02-1.73,6.02,5.14v14.43c0,3.15,4.15,12.82,13.57,12.35,0,0,3.25-.34,6.35-1.2l10.11-3.25s12.73-3.83,17.18-12.03c0,0,2.12-4.11,5.16-4.11,0,0,5.31-.69,4.8,7.38l14.43-4.81V28s-.42-4.13,4.44-4.13,4.65,3.77,4.65,3.77v72.12c0,2.03,2.12,8.33,9.1,8.24,0,0,19.57-.17,19.57-16.83v-6.34l-4.98,1.71v6.02s.33,4.06-4.29,4.28c-.42.09-4.95-.07-4.8-4.47V4.13S283.81,0,279.69,0c0,0-3.76-.34-6.68,4.82-2.92,5.14-3.97,9.08-7.9,9.08,0,0-4.68.56-4.62-3.6v-4.47l-14.79,4.82v16.98c0,4.22-3.16,25.17-8.74,25.24-.39.06-5.64.79-5.85-4.47v-19.74c.15-2.66-1.94-10.62-8.59-9.78l-5.99,1.2v42.75c0,1.31-.48,7.62-7.58,7.9-.63.1-7.54-.19-7.54-6.87v-27.81s-.33-4.99,4.65-5.33l.15-7.21s-15.09,3.43-22.13,16.14c-.83.9-2.59,1.71-3.79,1.71-.71,0-4.11-.21-4.29-3.6v-4.63l-24.9,8.24s-9.78,3.1-9.78,13.06c0,0,0,6.87,4.29,10.12l17.36,13.06s2.95,2.1,1.52,5.67c-.18.6-2.21,4.71-6.35,4.8-.81.09-3.43,0-4.98-3.96,0,0-1.37-5.14-5.82-3.6,0,0-8.35,2.93-8.95,3.1-.57.17-5.49,1.03-5.49-4.81v-19.24c0-1.43-1.76-9.57-8.59-9.27,0,0-3.94.34-7.36,1.9v8.41s4.62-.69,4.62,5.31v29.03s.21,7.24-7.37,7.38c-6.35-.07-7.4-6.14-7.4-6.87-.06-4.11.18-92.54.18-92.54l-15.12,5.84.18,63.36s-.92,20.57-6.71,28.51c-1.67,2.27-7.54,2.27-8.05-2.76v-32.62l-14.76,4.64v13.21c0,2.21-2.06,28.45-9.6,28.08-.96.02-2.98-1.03-3.01-5.54l.09-31.96-14.44,5.14s-.15,17.57-.18,18.54c-.45,5.63.36,31.08-16.49,31.08,0,0-4.12.17-4.12-4.81V52.55s.48-8.03,6.71-10.83c0,0,6.35-2.27,7.73-2.74,1.34-.47,6.53,0,6.53,5.67v18.03l18.19-5.67"/>
      <path class="cls-1" d="m286.31,5.58c0-2.8,2.24-4.62,4.74-4.62s4.74,1.82,4.74,4.62-2.23,4.64-4.74,4.64-4.74-1.8-4.74-4.64m4.74-3.64c-1.97,0-3.52,1.52-3.52,3.64s1.55,3.66,3.52,3.66,3.52-1.52,3.52-3.66-1.58-3.64-3.52-3.64Zm-.84,6.23h-1.01V2.99h1.97c1.28,0,2,.41,2,1.54,0,.94-.57,1.31-1.25,1.39l1.25,2.25h-1.13l-1.16-2.22h-.66v2.22Zm0-3h.9c.74,0,1.01-.24,1.01-.73s-.33-.64-1.07-.64h-.84v1.37h0Z"/>
    </g>
  </g>
</svg>