<?xml version="1.0" encoding="utf-8"?>
<!-- Generator: Adobe Illustrator 19.0.0, SVG Export Plug-In . SVG Version: 6.00 Build 0)  -->
<svg version="1.1" id="layer" xmlns="http://www.w3.org/2000/svg" xmlns:xlink="http://www.w3.org/1999/xlink" x="0px" y="0px"
	 viewBox="-153 -46 652 652" style="enable-background:new -153 -46 652 652;" xml:space="preserve">
<style type="text/css">
	.st0{fill:#CE4813;}
</style>
<path class="st0" d="M4,229.5h-42.1c0,0-4.6-0.3-7.8,4.6c-2.8,4.1-52.3,88.2-52.3,88.2s-4.7,7.5,2.3,7.5H-82l25.8-42.5h-11.4
	l5.2-9.6h36.3l-36.3,62.1h-57.7c-0.2-0.1-11.1-5.3-2.1-19.6l51.3-88.5c0,0,6.7-12.7,25-12.7h56.4L4,229.5z"/>
<path class="st0" d="M47.6,255.4c0,0-3.9,7.7-8.3,15.5c-3.8,6.8-7.2,6.8-7.2,6.8H21.5l14.8-26.3h7.3
	C49.7,251.3,47.6,255.4,47.6,255.4 M61.7,242.7H22.1c-5,0-6.9,3.3-6.9,3.3l-53.5,93.8h23l30.9-52.5H23c6.1,0,4,4,4,4
	S9.4,324.4,6.3,329.7c-3.7,6.4,0,10.1,0,10.1h22.4c-2.6-3.4,1.4-10,1.4-10s10.7-19.4,15.5-28.3c3.8-6.9,0.9-11.4-0.3-12.6
	c-1-1-1.9-2.7,1.1-3.2c0,0,8.5-1.4,11.3-6.2l12.2-21.6C77,245,67.4,242.7,61.7,242.7"/>
<path class="st0" d="M98.4,339.7h-49l52.3-93.8c0,0,1.7-3.3,6.9-3.3h42.7l-4.7,8.6h-23.7l-14.8,26.3h23.7l-6,9.6h-22.7l-23.3,42.5
	H104L98.4,339.7z"/>
<polygon class="st0" points="118.7,339.7 179,229.5 25.5,229.5 31.7,218.9 375,218.9 369,229.5 202.2,229.5 141.6,339.7 "/>
<g>
	<path class="st0" d="M214,247.8l-14.3,24.2c-7.1,12.9,3.9,15.2,8.2,15.2h17.6l-0.1,0l-23.5,42.5h-5.8c-6.1,0-4-4-4-4l-0.2,0.4
		l8.3-14.8h-22.4l-7.7,13.2c-7.1,12.9,3.9,15.2,8.2,15.2h34.6c7,0,10.4-5.1,10.4-5.1l12.8-21.9l11.3-19.9
		c7.1-12.9-3.9-15.2-8.2-15.2h-17.6l-0.2,0l14.8-26.3h5.8c6.1,0,4,4,4,4l0.2-0.4l-6.6,11.6h22.4l5.3-8.7c7.1-12.9-3.9-15.2-8.2-15.2
		h-34.6C217.3,242.7,214,247.8,214,247.8"/>
	<path class="st0" d="M294.9,247.8l-45.2,76.7c-7.1,12.9,3.9,15.2,8.2,15.2h34.6c7,0,10.4-5.1,10.4-5.1l13.5-23.2h-21.5L284,329.8
		h-8.3c-6.1,0-4.2-3.6-4.2-3.6l43.6-74.8h7.7c6.1,0,4,4,4,4l0.2-0.4l-6.6,11.6h20.5l5.3-8.7c7.1-12.9-3.9-15.2-8.2-15.2h-32.7
		C298.3,242.7,294.9,247.8,294.9,247.8"/>
	<path class="st0" d="M466.7,225.1h0.8c0.9,0,1.7-0.3,1.7-1.2c0-0.6-0.5-1.3-1.7-1.3c-0.4,0-0.6,0-0.8,0.1V225.1z M466.7,229.1h-1.2
		v-7.2c0.6-0.1,1.2-0.2,2-0.2c1.1,0,1.8,0.2,2.2,0.5c0.4,0.3,0.7,0.8,0.7,1.5c0,0.9-0.6,1.5-1.4,1.7v0.1c0.6,0.1,1.1,0.7,1.2,1.7
		c0.2,1.1,0.3,1.5,0.5,1.8h-1.2c-0.2-0.2-0.3-0.9-0.5-1.8c-0.2-0.9-0.6-1.3-1.5-1.3h-0.8V229.1z M467.9,219.9
		c-2.8,0-5.2,2.4-5.2,5.4c0,3.1,2.3,5.5,5.2,5.5c2.9,0,5.2-2.4,5.2-5.4C473.1,222.3,470.8,219.9,467.9,219.9L467.9,219.9z
		 M467.9,218.9c3.5,0,6.3,2.9,6.3,6.5c0,3.6-2.8,6.5-6.4,6.5c-3.5,0-6.4-2.8-6.4-6.5C461.5,221.7,464.3,218.9,467.9,218.9
		L467.9,218.9z"/>
</g>
<polygon class="st0" points="433.9,218.9 400.8,275 384.4,275 417.7,218.9 393.2,218.9 323,339.7 347,339.7 378.6,284.8 
	395.1,284.8 363.7,339.7 387.7,339.7 458.4,218.9 "/>
</svg>
