<?xml version="1.0" encoding="UTF-8"?>
<svg id="Capa_2" data-name="Capa 2" xmlns="http://www.w3.org/2000/svg" viewBox="0 0 599.96 120.9">
  <defs>
    <style>
      .cls-1 {
        fill: #fff;
      }
    </style>
  </defs>
  <g id="layer">
    <path class="cls-1" d="m129.76,10.6h-42.1s-4.6-.3-7.8,4.6c-2.8,4.1-52.3,88.2-52.3,88.2,0,0-4.7,7.5,2.3,7.5h13.9l25.8-42.5h-11.4l5.2-9.6h36.3l-36.3,62.1H5.66c-.2-.1-11.1-5.3-2.1-19.6L54.86,12.8S61.56.1,79.86.1h56.4l-6.5,10.5Z"/>
    <path class="cls-1" d="m173.36,36.5s-3.9,7.7-8.3,15.5c-3.8,6.8-7.2,6.8-7.2,6.8h-10.6l14.8-26.3h7.3c6.1-.1,4,4,4,4m14.1-12.7h-39.6c-5,0-6.9,3.3-6.9,3.3l-53.5,93.8h23l30.9-52.5h7.4c6.1,0,4,4,4,4,0,0-17.6,33.1-20.7,38.4-3.7,6.4,0,10.1,0,10.1h22.4c-2.6-3.4,1.4-10,1.4-10,0,0,10.7-19.4,15.5-28.3,3.8-6.9.9-11.4-.3-12.6-1-1-1.9-2.7,1.1-3.2,0,0,8.5-1.4,11.3-6.2l12.2-21.6c7.1-12.9-2.5-15.2-8.2-15.2"/>
    <path class="cls-1" d="m224.16,120.8h-49l52.3-93.8s1.7-3.3,6.9-3.3h42.7l-4.7,8.6h-23.7l-14.8,26.3h23.7l-6,9.6h-22.7l-23.3,42.5h24.2l-5.6,10.1Z"/>
    <polygon class="cls-1" points="244.46 120.8 304.76 10.6 151.26 10.6 157.46 0 500.76 0 494.76 10.6 327.96 10.6 267.36 120.8 244.46 120.8"/>
    <g>
      <path class="cls-1" d="m339.76,28.9l-14.3,24.2c-7.1,12.9,3.9,15.2,8.2,15.2h17.6-.1l-23.5,42.5h-5.8c-6.1,0-4-4-4-4l-.2.4,8.3-14.8h-22.4l-7.7,13.2c-7.1,12.9,3.9,15.2,8.2,15.2h34.6c7,0,10.4-5.1,10.4-5.1l12.8-21.9,11.3-19.9c7.1-12.9-3.9-15.2-8.2-15.2h-17.8l14.8-26.3h5.8c6.1,0,4,4,4,4l.2-.4-6.6,11.6h22.4l5.3-8.7c7.1-12.9-3.9-15.2-8.2-15.2h-34.6c-7.2.1-10.5,5.2-10.5,5.2"/>
      <path class="cls-1" d="m420.66,28.9l-45.2,76.7c-7.1,12.9,3.9,15.2,8.2,15.2h34.6c7,0,10.4-5.1,10.4-5.1l13.5-23.2h-21.5l-10.9,18.4h-8.3c-6.1,0-4.2-3.6-4.2-3.6l43.6-74.8h7.7c6.1,0,4,4,4,4l.2-.4-6.6,11.6h20.5l5.3-8.7c7.1-12.9-3.9-15.2-8.2-15.2h-32.7c-7,0-10.4,5.1-10.4,5.1"/>
      <path class="cls-1" d="m592.46,6.2h.8c.9,0,1.7-.3,1.7-1.2,0-.6-.5-1.3-1.7-1.3-.4,0-.6,0-.8.1v2.4Zm0,4h-1.2V3c.6-.1,1.2-.2,2-.2,1.1,0,1.8.2,2.2.5.4.3.7.8.7,1.5,0,.9-.6,1.5-1.4,1.7v.1c.6.1,1.1.7,1.2,1.7.2,1.1.3,1.5.5,1.8h-1.2c-.2-.2-.3-.9-.5-1.8-.2-.9-.6-1.3-1.5-1.3h-.8v3.2h0Zm1.2-9.2c-2.8,0-5.2,2.4-5.2,5.4s2.3,5.5,5.2,5.5,5.2-2.4,5.2-5.4-2.3-5.5-5.2-5.5h0Zm0-1c3.5,0,6.3,2.9,6.3,6.5s-2.8,6.5-6.4,6.5-6.4-2.8-6.4-6.5c.1-3.7,2.9-6.5,6.5-6.5h0Z"/>
    </g>
    <polygon class="cls-1" points="559.66 0 526.56 56.1 510.16 56.1 543.46 0 518.96 0 448.76 120.8 472.76 120.8 504.36 65.9 520.86 65.9 489.46 120.8 513.46 120.8 584.16 0 559.66 0"/>
  </g>
</svg>