<?xml version="1.0" encoding="UTF-8"?>
<svg id="Capa_2" data-name="Capa 2" xmlns="http://www.w3.org/2000/svg" viewBox="0 0 523.53 206.04">
  <defs>
    <style>
      .cls-1, .cls-2 {
        fill: #fff;
      }

      .cls-2 {
        fill-rule: evenodd;
      }
    </style>
  </defs>
  <g id="logo">
    <g>
      <g>
        <path class="cls-1" d="m56.99,107.56c-27.92,0-50.56-22.64-50.56-50.56S29.07,6.44,56.99,6.44s50.56,22.64,50.56,50.56-22.64,50.56-50.56,50.56M56.99,0C25.51,0,0,25.51,0,57s25.52,56.99,56.99,56.99,56.99-25.52,56.99-56.99S88.47,0,56.99,0"/>
        <path class="cls-1" d="m75.89,67.91c-.79,1.36-2.53,1.83-3.89,1.04l-6.95-4.02v-3.28l2.85-1.64,6.95,4.01c1.36.79,1.82,2.53,1.04,3.89m-15.63-9.02l-3.27,1.89-3.27-1.89v-3.78l3.27-1.89,3.27,1.89v3.78Zm-6.12-20.87c0-1.57,1.27-2.85,2.84-2.85s2.85,1.27,2.85,2.85v8.03l-2.84,1.64-2.85-1.64v-8.03Zm-5.21,26.92l-6.95,4.01c-1.36.79-3.1.32-3.89-1.04s-.32-3.1,1.04-3.89l6.95-4.01,2.84,1.64v3.29h.01Zm49.48,15.01l-8.28-9.66c-.1-.12-.22-.22-.36-.3-.42-.24-.92-.25-1.33-.05-1.26.6-2.79.59-4.09-.16-1.16-.67-1.9-1.79-2.13-3h0c-.58-3.1-2.46-5.94-5.41-7.63l-3.71-2.14,21.07-12.16-2.61-4.52-23.67,13.67-2.85-1.64v-3.29l23.67-13.67-2.61-4.52-21.07,12.16v-4.28c0-3.4-1.52-6.45-3.91-8.5-.94-.81-1.54-2-1.54-3.34,0-1.5.75-2.84,1.9-3.63.38-.26.62-.69.62-1.18,0-.16-.03-.32-.07-.46l-4.23-12c-.12-.35-.45-.6-.84-.6s-.72.25-.83.6l-4.23,12c-.05.15-.08.3-.08.46,0,.49.24.92.62,1.18h0c1.15.79,1.91,2.13,1.91,3.63,0,1.34-.6,2.54-1.54,3.34-2.39,2.05-3.91,5.1-3.91,8.5v4.28l-21.07-12.16-2.61,4.52,23.68,13.67v3.29l-2.84,1.64-23.68-13.67-2.61,4.52,21.07,12.16-3.71,2.14c-2.95,1.7-4.82,4.53-5.41,7.63h0c-.23,1.22-.97,2.34-2.13,3-1.31.75-2.83.76-4.1.16-.41-.2-.91-.19-1.33.05-.14.08-.26.18-.36.3l-8.28,9.66c-.24.28-.3.68-.1,1.03.19.33.57.49.93.42l12.5-2.34c.15-.03.3-.08.44-.16.42-.25.67-.67.71-1.13.11-1.39.89-2.71,2.19-3.46,1.16-.66,2.49-.75,3.66-.34,2.97,1.05,6.37.84,9.31-.87l3.71-2.13v24.33h5.22v-27.34l2.85-1.64,2.84,1.64v27.34h5.22v-24.33l3.7,2.13c2.94,1.7,6.34,1.91,9.32.87,1.17-.41,2.51-.33,3.66.34,1.3.75,2.07,2.07,2.19,3.46.03.46.29.88.71,1.13.14.08.29.14.44.16l12.5,2.34c.36.07.74-.09.94-.42.25-.35.19-.76-.05-1.03"/>
        <polygon class="cls-1" points="436.46 45.42 417.44 45.42 417.44 7.39 400.06 7.39 400.06 106.6 417.44 106.6 417.44 63.04 436.46 63.04 436.46 106.6 454.21 106.6 454.21 7.39 436.46 7.39 436.46 45.42"/>
        <polygon class="cls-1" points="169 7.39 155.88 46.04 144 7.39 126.67 7.39 145.95 68.22 145.95 106.6 165.25 106.6 165.25 66.25 185.24 7.39 169 7.39"/>
        <polygon class="cls-1" points="285.93 54.58 276.27 7.39 249.15 7.39 249.15 106.6 264.7 106.6 264.7 31.82 277.98 96.83 292.5 96.83 304.28 30.76 304.28 106.6 322.52 106.6 322.52 7.39 294.25 7.39 285.93 54.58"/>
        <path class="cls-1" d="m484.84,66.98l7.39-44.37,7.18,44.37h-14.57Zm22.32-59.59h-26.87l-18.13,99.21h16.08l3.84-23.09h20l3.73,23.09h17.72l-16.37-99.21Z"/>
        <path class="cls-1" d="m353.14,66.98l7.39-44.37,7.18,44.37h-14.57Zm-4.55-59.59l-18.14,99.21h16.08l3.85-23.09h20l3.73,23.09h17.71l-16.37-99.21h-26.86Z"/>
        <path class="cls-1" d="m202.23,66.98l7.39-44.37,7.17,44.37h-14.56Zm-4.56-59.59l-18.14,99.21h16.08l3.85-23.09h20l3.73,23.09h17.71L224.53,7.39h-26.86Z"/>
      </g>
      <g>
        <path class="cls-2" d="m470.23,191.32c11.18-.71,22.15-.18,35.7-.29-11.25-.99-24.81-.37-40.63-1.24,9.05-.2,19.76.19,25.27.4,7.14-.19,19.92.16,30.2.32.1-.32-1.94-.14-2.74-.25.56-.62,4.65-.14,5.5-.66-5.53-.63-12.19-.93-18.09-1.39.77-.36,4.66.22,5.5-.12-7.85-.85-18.5-.49-27.47-1.28-3.12-.27-5.4-.86-8.24-1.01-9.64-.56-19.52,0-30.25-.13-13.81-.02-29.07-.19-44.56.12,1.08-.41,5.47.02,6.6-.37-12.18-.25-24.22-.25-37.96.06-12.02.25-23.89.49-35.76.74-13.2.4-26.19.78-40.16,1.2-7.01.11-14.33.23-21.47.35-37.09,1.32-73.51,2.62-110.13,3.93-10.48.22-21.41.48-31.44,1.13-7.49.63-16.69,1.41-24.75,2.09-3.71.36-7.95.58-13.17,1.54-7.6.83-12.85,2.25-16.92,3.02.48.16-.98.03,0,0-3.45.64-1.76,1.39-5.36,2.11.1.26,1.86-.13,2.22.04-1.79.45-4.6,1.23-1.55,1.22-1.64.43.88.66,1.46.63,5.61-.3,2.19,1.94,3.74,2.34,21.05,1.08,35.68-2.05,58.93-2.8,13.49-.61,29.07-1.83,43.96-2.28,17.51-.75,39.06-1.66,57.67-2.45,11.22-.42,23-.87,34.05-1.29,9.06-.47,19.91-.72,28-.96,16.88-.6,34.95-1.96,52.69-2.29,12.07-.18,23.33-.35,33.5-.5-.09-.17-1-.1-1.65-.11,5.88.19,10.51-.69,19.22-.43-4.16.58,1.49.24,4.4.1,13.79-.67,31.89-.62,43.93-1.48.7.1,1.5.21,2.2.31.62-.02.31-.15,0-.15h-.55c-.1-.12.21-.14.55-.14,19.13.2,17.56-.03,17.56-.03"/>
        <g>
          <path class="cls-1" d="m154.93,172.09c-.05,4.57.18,6.31.5,7-1.05,1.04-3.36,2.59-5.53,2.74-1.24.09-2.61-.35-3.38-1.19-.59-1.34-.38-3.92-.28-5.34.53-7.96,3.33-20.74,4.5-27.08.11-.62-.73-1.02-1.09-.61-12.27,13.72-21.34,25.31-23.01,29.22,0,0-3.17,1.68-5.41,2.24-.93-.15-2.25-1.14-3.2-2.14-.02-2.54-.13-3.56-.24-4.74-.58-5.84.18-17.29-.47-21.42-.07-.44-.74-.59-1.19-.09-5.95,10.04-12.71,21.47-17.74,29.43-.53.83-2.35,1.83-3.79,2.29-1.28-.14-3.04-3.26-2.44-4.25,4.15-6.78,4.4-6.57,11.15-17.42,6.04-9.7,10.17-16.49,11.53-19.54.58-1.3,2.61-1.93,4.3-2.31,1.54.47,3.19,1.09,4.17,1.74,1.53,6.07.09,19.14,1.12,26.07.13.75.73.85,1.24.3,7.32-8.54,18.62-20.49,25.76-28.58,1.63-.97,4.07-1.51,6.22-1.65.99.74,2.69,2.32,3,3.77-2.31,5.72-5.62,22.92-5.72,31.56"/>
          <path class="cls-1" d="m221.34,162.7c7.48-4.16,13.2-7.75,17.57-11.74,1.45-.03,2.36.11,3.38.34.61.48,1.18,1.82,1.17,2.77-2.39,2.7-13,7.5-16.97,9.91-.37.18-.38.44-.15.74,3.6,3.71,8.86,8.27,13.67,9.57.07.66-.17,1.65-.46,2.07-1.48.85-4.42,2.4-6.52,2.53-5.77-5.41-9.5-8.9-13.59-12.53-.15-.13-.68-.19-.84.2-2.23,5.61-3.12,9.07-3.49,10.84-1.47.94-3.38,1.88-5.59,2.1-.91-.23-3.49-1.01-3.9-1.74,1.57-2.17,5.41-9.5,11.28-24.44,4.8-12.29,6.65-17.65,5.58-19.35,1.59-.86,5.1-1.9,7.08-2.11.82.39,1.92,1.36,2.7,2.49-3.85,8.31-7.06,15.54-11.9,27.5-.13.5.33,1.03.98.85"/>
          <path class="cls-1" d="m265.74,148.98c4.9-.11,10.61.73,11.13,3.68.69,4.68-9.19,11.46-21.52,9.6,0,0-2.81,3.74-2.2,8.14.23,1.53,1.55,2.6,3.99,2.5,9.15-.36,21.2-6.27,27.76-11.76.43.44.29.75-.4,1.5-1.25,1.33-3.79,2.88-4.12,4.4-7.34,6.58-19.34,11.35-27.48,11.59-5.13.16-7.35-1.57-7.66-4.69-.74-7.39,6.75-18.42,15.55-24.21,1.61-.44,3.28-.72,4.95-.75m-9.47,11.41c6.01-.13,14.38-3,14.04-6.37-.16-1.64-4.34-1.96-7.18-1.78-2.08,1.61-4.94,5.06-6.86,8.15"/>
          <path class="cls-1" d="m357.69,158.18c-3.37,4.07-11.08,13.46-11.46,16.35-1.54,1.35-4.06,2.17-5.56,2.42-1.39-.55-2.23-1.1-3.2-1.91-.89-3.36-2.17-8.94-2.78-15.1-.48-4.76-.82-7.08-1.16-10-.03-.7-.55-.94-1.12-.44-6.44,7.05-17.64,17.65-25.72,26.77-2.12,1.03-4.61,1.46-6.64,1.62-1.68-1.2-2.01-3.41-2.27-6.04-.83-8.3,6.15-24.42,5.62-29.75-.05-.49.15-1.14.41-1.49,1.03-.84,3.36-2.05,4.9-2.33,1.31.51,2.14,1.35,2.74,2.9.25,2.55-1.36,7.6-2.96,12.82-1.6,5.22-3.18,10.6-2.85,13.89.04.41.47.56.88.14,9.89-8.1,20.56-20.01,24.42-25.59,1.86-1.1,4.56-2.01,6.9-2.37.92.31,2.24,1.19,2.86,1.83.32,3.2.48,9.83,1.3,18.04.22,2.22.66,4.54,1.14,6.1.19.69.77.7,1.17.27,6.87-8.3,17.25-20.23,23.17-27.54,1.27-.69,1.6-1.48,3.24-1.76,1.24.14,2.22,1.02,2.63,1.75-2.51,5.11-12.29,15.35-15.66,19.42"/>
          <path class="cls-1" d="m414.24,150.33c-.27,6.26-.64,9.6-.3,14.28.05.66.18,1.67.41,2.13.17.41.49.57.8.14,6.87-7.39,13.1-13.09,21.49-19.52,1.49.11,3.79.31,4.94,1.01-11.54,9.04-16.55,15.02-24.08,25.06-1.78,1.19-4.77,2.26-7.11,2.54-1-1.59-2.46-4.65-2.96-9.58-.5-5.01-.07-9.26-.15-10.65-.05-.94-3.08,1.84-3.57,1.17-.29-.4.43-1.82.48-2.66.69-.92,5.18-4.83,6.17-5.37,1.46.13,2.73.52,3.78.99l.1.46Z"/>
          <path class="cls-1" d="m497.64,146.71c.43.85.51,1.62.56,2.13-.73.87-2.35,2.02-4.5,2.58-2.11-1.2-4.01-1.93-5.52-1.9-.92.02-2.37.31-3.19.83-2.31,1.33-3.37,3.38-3.22,4.92.13,1.28.88,1.78,6.24,2.01,5.6.31,8.72,1.35,9.01,4.26.61,6.07-10.02,14.22-22.71,14.36-5.29.06-7.21-.39-7.75-2.06-.58-1.79.56-4.55,3.32-8.6.97-.28,2.87-.35,4.16.03-.96,1.69-1.66,3.72-1.43,5.19.22,1.4,1.59,1.93,4.48,1.87,6.95-.15,11.99-4.28,11.57-8.47-.14-1.45-1.12-1.94-6.59-2.08-5.48-.22-7.52-.95-7.74-3.17-.41-4.1,8.8-13.04,15.4-13.18,2.2-.06,6.34.71,7.91,1.28"/>
          <path class="cls-1" d="m392.65,150.19c1.05-.65,1.21-.82,2.39-1.26,1.02.12,2.04.37,3.01,1.09-3,5.74-6.34,12.7-6.5,17.9-.04,1.16.49,1.62,1.6,1.67.74.03,1.66-.07,3.32-1.58.1.11.37.56.27.93-.16.56.04.29-.27.66-.81.98-.06,1.51-.95,2.45-3.28,2.56-5.34,3.35-8.04,3.14-1.1-.09-2.39-.89-2.72-2.41-.27-1.21-.43-4.78.84-7.69.17-.36-.13-.74-.54-.32-6.77,7.05-14.11,11.05-19.24,11.18-1.89.05-3.97-1.72-4.13-3.79-.46-6.16,4.01-14.85,15.06-21.14,3.2-1.69,6.08-2.36,9.43-2.28,2.23.06,4.84.74,6.47,1.45m-22.77,18.1c.22,1.1,1.59,1.36,2.37,1.35,3.56,0,11.56-5.77,17.44-16.1-.77-.97-2.3-2.08-4.72-2.04-4.93.1-16.45,9.91-15.09,16.79"/>
          <path class="cls-1" d="m456.32,146.49c4.9-.11,9.21.62,9.73,3.58.69,4.68-6.94,13.71-21.85,11.9,0,0-1.81,3.03-.81,6.39.54,1.82,1.91,2.62,3.84,2.58,4.45-.08,9.8-1.19,14.91-4.01.58.48-.64,1.1-.6,1.44.04.32.82.32.01.96-4.48,3.14-13.33,6.65-18.78,6.77-4.23.09-6.62-1.51-6.93-4.62-.74-7.39,6.37-18.02,15.16-23.81,1.8-.74,3.65-1.14,5.32-1.18m-10.94,13.3c8.59-.38,14.12-4.88,13.78-8.25-.16-1.64-2.97-2.07-5.82-1.88-2.06,1.6-6.04,7.04-7.96,10.13"/>
          <path class="cls-1" d="m200.85,172.31h0c-1.94,1.31-4.56,2.55-5.71,2.58-.8.02-1.44-.65-1.56-1.83-.53-5.33,4.26-14.93,7.34-20.85-.99-.74-2.05-.99-3.1-1.12-1.22.46-2.21,1-3.29,1.67-1.68-.73-4.03-1.45-5.31-1.49-3.29-.11-7.22.92-10.19,2.52-12.37,6.66-17.36,17.4-16.74,23.66.22,2.2,3.26,2.79,4.65,2.8,5.28.03,13.36-4.73,19.77-11.6.42-.43.97-.04.79.33-1.31,3-1.11,6.66-.85,8.09.47,1.62,1.35,2.52,2.61,2.6,4.57.26,9.85-3,12.75-5.01h0c1.12-.73,1.05-1.82,1.05-1.82.29-.88,2.61-2.72,2.23-3.6,0,0-3.36,2.37-4.44,3.07m-27.86,1.84c-.86.35-2.11-.48-2.21-1.41-.66-6.48,8.94-18.43,16.8-18.81,1.2-.06,3.76,1.41,4.55,2.41-6.06,10.64-14.79,16.06-19.14,17.81"/>
        </g>
      </g>
    </g>
  </g>
</svg>